<svg width="676px" height="88px" xmlns="http://www.w3.org/2000/svg">
    <g fill-rule="nonzero" fill="#ffffff">
        <path d="M130.062482,27.5797521 L130.062482,41.7498406 L121.11093,41.7181857 C113.996115,41.7181857 109.116739,46.0692266 109.116739,54.5346504 L109.116739,85.5783062 L93.7724042,85.5783062 L93.7724042,28.6077826 L108.646437,28.6077826 L108.646437,34.8392751 C112.233239,29.4895976 117.701245,27.0793033 124.696977,27.0793033 C126.738718,27.0793033 128.507624,27.2601884 130.062482,27.5797521 Z M493.942304,27.5797521 L493.942304,41.7498406 L484.98849,41.7181857 C477.873676,41.7181857 472.997314,46.0692266 472.997314,54.5346504 L472.997314,85.5783062 L457.652226,85.5783062 L457.652226,28.6077826 L472.522491,28.6077826 L472.522491,34.8392751 C476.110046,29.4895976 481.581821,27.0793033 488.576045,27.0793033 C490.61854,27.0793033 492.389707,27.2601884 493.942304,27.5797521 Z M195.879796,57.0640274 C195.879796,74.2315331 182.768639,87.0479979 165.01401,87.0479979 C147.316662,87.0479979 134.265047,74.2315331 134.265047,57.0640274 C134.265047,39.8965217 147.316662,27.0793033 165.01401,27.0793033 C182.768639,27.0793033 195.879796,39.8965217 195.879796,57.0640274 Z M149.904073,57.0640274 C149.904073,66.2936909 156.37147,72.7610878 165.01401,72.7610878 C173.656551,72.7610878 180.181982,66.2936909 180.181982,57.0640274 C180.181982,47.8328566 173.656551,41.3662134 165.01401,41.3662134 C156.37147,41.3662134 149.904073,47.8328566 149.904073,57.0640274 Z M254.503911,37.8381997 L243.451076,47.0686169 C239.982604,43.3642403 236.278981,41.3662134 231.280522,41.3662134 C223.344187,41.3662134 216.994366,47.5977059 216.994366,57.0640274 C216.994366,66.5883829 223.284646,72.7610878 231.222488,72.7610878 C236.160652,72.7610878 240.394118,70.5271565 243.628193,66.9991429 L254.562699,76.3478891 C249.212267,83.2267996 241.216391,87.0479979 231.692036,87.0479979 C213.525893,87.0479979 201.356093,74.3483547 201.356093,57.0640274 C201.356093,39.8369804 213.525893,27.0793033 231.692036,27.0793033 C241.216391,27.0793033 249.271809,30.9600429 254.503911,37.8381997 Z M277.438637,48.8917882 L282.84861,48.8917882 L298.898396,28.6077826 L317.711957,28.6077826 L295.253561,55.4172191 L317.889073,85.5783062 L299.016725,85.5783062 L282.613459,62.5312803 L277.438637,62.5312803 L277.438637,85.5783062 L262.095057,85.5783062 L262.095057,0.915777387 L277.438637,0.915777387 L277.438637,48.8917882 Z M338.29593,34.7224535 C342.353033,29.0780839 348.408916,27.0793033 354.640409,27.0793033 C367.578971,27.0793033 376.804112,36.0745698 376.804112,49.3033019 L376.804112,85.5783062 L361.461285,85.5783062 L361.461285,54.2414658 C361.461285,46.0104389 357.344641,41.483035 350.348909,41.483035 C343.764691,41.483035 338.29593,45.7752883 338.29593,54.3590411 L338.29593,85.5783062 L322.951596,85.5783062 L322.951596,0.857743409 L338.29593,0.857743409 L338.29593,34.7224535 Z M445.012878,85.5783062 L430.022023,85.5783062 L430.022023,79.2872723 C426.313878,83.8727102 420.789345,87.0479979 412.9736,87.0479979 C397.274279,87.0479979 385.396156,74.1719918 385.396156,57.0640274 C385.396156,39.9545557 397.274279,27.0793033 412.9736,27.0793033 C420.789345,27.0793033 426.26112,30.2538372 430.022023,34.8988165 L430.022023,28.6077826 L445.012878,28.6077826 L445.012878,85.5783062 Z M401.095477,57.0640274 C401.095477,65.7653556 406.793358,72.7610878 415.792393,72.7610878 C424.550248,72.7610878 430.48931,66.0585402 430.48931,57.0640274 C430.48931,48.0680072 424.550248,41.3662134 415.792393,41.3662134 C406.793358,41.3662134 401.095477,48.3619455 401.095477,57.0640274 Z M563.078106,57.0640274 C563.078106,74.1719918 551.20752,87.0479979 535.508198,87.0479979 C527.632159,87.0479979 522.160383,83.8727102 518.459775,79.2872723 L518.459775,85.5783062 L503.468921,85.5783062 L503.468921,0.915777387 L518.753714,0.915777387 L518.753714,34.5453368 C522.454322,30.0774742 527.805507,27.0793033 535.447903,27.0793033 C551.20752,27.0793033 563.078106,39.9545557 563.078106,57.0640274 Z M517.984952,57.0640274 C517.984952,66.0585402 523.924013,72.7610878 532.62911,72.7610878 C541.680903,72.7610878 547.326026,65.7653556 547.326026,57.0640274 C547.326026,48.3619455 541.680903,41.3662134 532.62911,41.3662134 C523.924013,41.3662134 517.984952,48.0680072 517.984952,57.0640274 Z M630.171413,57.0640274 C630.171413,74.2315331 617.064779,87.0479979 599.307889,87.0479979 C581.611294,87.0479979 568.557418,74.2315331 568.557418,57.0640274 C568.557418,39.8965217 581.611294,27.0793033 599.307889,27.0793033 C617.064779,27.0793033 630.171413,39.8965217 630.171413,57.0640274 Z M584.196444,57.0640274 C584.196444,66.2936909 590.663088,72.7610878 599.307889,72.7610878 C607.952691,72.7610878 614.472092,66.2936909 614.472092,57.0640274 C614.472092,47.8328566 607.952691,41.3662134 599.307889,41.3662134 C590.663088,41.3662134 584.196444,47.8328566 584.196444,57.0640274 Z M675.468063,27.5797521 L675.468063,41.7498406 L666.51425,41.7181857 C659.399435,41.7181857 654.523073,46.0692266 654.523073,54.5346504 L654.523073,85.5783062 L639.177985,85.5783062 L639.177985,28.6077826 L654.04825,28.6077826 L654.04825,34.8392751 C657.635805,29.4895976 663.10758,27.0793033 670.101805,27.0793033 C672.144299,27.0793033 673.907929,27.2601884 675.468063,27.5797521 Z M45.2296199,49.6055308 C45.2296199,42.1673837 39.2001158,36.1378796 31.7619687,36.1378796 C24.3238217,36.1378796 18.2935638,41.1936188 18.2935638,48.6317659 L18.2935638,85.5783062 L0.45,85.5783062 L0.45,0.808 L18.2935638,0.808 L18.2935638,21.8080093 C22.3702623,19.8514352 26.9376117,18.7555728 31.7619687,18.7555728 C42.5540275,18.7555728 52.0655703,24.2401605 57.6609501,32.5736889 C60.8603558,37.1960575 62.8154225,43.0213122 63.0490658,49.9296166 L45.2296199,49.9296166 L45.2296199,49.6055308 Z M45.2296199,85.5783062 L45.2296199,67.7347424 L63.0731838,67.7347424 L63.0731838,85.5783062 L45.2296199,85.5783062 Z" id="Combined-Shape"></path>
    </g>
</svg>
